<svg version="1.1" xmlns="http://www.w3.org/2000/svg" xmlns:xlink="http://www.w3.org/1999/xlink" width="180" height="180" viewBox="0,0,180,180"><g transform="translate(-150,-90)"><g data-paper-data="{&quot;isPaintingLayer&quot;:true}" fill-rule="nonzero" stroke="none" stroke-linecap="butt" stroke-linejoin="miter" stroke-miterlimit="10" stroke-dasharray="" stroke-dashoffset="0" style="mix-blend-mode: normal"><path d="M150,270v-180h180v180z" fill="#7f7f7f" stroke-width="0"/><path d="M237.73828,125.28516c10.12849,-0.17167 18.61847,3.4147 25.97657,10.30469c6.91015,7.39401 10.17364,16.17955 9.84765,26.28516c-1.21022,10.81555 -5.94038,18.50606 -14.30469,25.29688c-0.59765,0.45156 -1.17773,0.88985 -1.75781,1.32813c6.89177,3.38886 12.73708,7.37147 18,13c7.25333,9.17039 11.92712,20.17923 11,32c-2.38,0 -4.69,0 -7,0c-1.49827,-10.73466 -4.09517,-19.46338 -11,-28c-7.62672,-7.56725 -16.13368,-11.10476 -26.80103,-11.41235c-0.8114,-0.00855 -1.59894,-0.01685 -2.38647,-0.02515c-0.77089,-0.01054 -1.51911,-0.02077 -2.26734,-0.031c-10.29015,0.16233 -20.12393,5.04727 -27.35766,12.281c-0.74375,1.08375 -1.46562,2.13563 -2.1875,3.1875c-4.63968,6.60422 -6.16465,13.22013 -7.51953,21.03516c-0.16336,1.00805 -0.32191,1.98645 -0.48047,2.96484c-2.38,0 -4.69,0 -7,0c-0.02125,-1.25375 -0.04188,-2.47063 -0.0625,-3.6875c-0.03977,-2.34634 0.08783,-4.46841 0.46484,-6.78906c3.70838,-15.65763 13.15371,-24.88315 26.40234,-33.16797c0.74641,-0.46086 1.47086,-0.90816 2.19531,-1.35547c-8.21739,-6.20869 -13.77674,-13.13739 -15.62109,-23.48437c-0.88619,-9.67144 0.48837,-17.6522 6.16016,-25.69922c6.66391,-8.04842 15.17522,-13.0211 25.69922,-14.03125zM238.75,186.25c16.81009,-0.1061 27.4506,-11.36338 27.83333,-26.83334c0.33333,-13.47289 -10.52887,-27.27109 -27.33333,-27.16666c-16.97673,0.1055 -26.48265,13.85977 -26.66666,27.5c-0.17276,12.80606 9.19559,26.60711 26.16666,26.5z" fill="#ffffff" stroke-width="1"/></g></g></svg>